<svg width="187" height="59" viewBox="0 0 187 59" fill="none" xmlns="http://www.w3.org/2000/svg">
<path d="M25.032 0.455997H28.616C30.3653 0.583998 31.9867 0.946665 33.48 1.544C35.144 2.09867 36.744 2.952 38.28 4.104C38.664 4.40266 38.856 4.50933 38.856 4.424C38.8987 4.424 39.688 3.784 41.224 2.504C42.9307 1.13866 43.7627 0.477331 43.72 0.519997C44.0613 0.306664 44.68 0.306664 45.576 0.519997C45.7893 0.647998 45.9173 0.861331 45.96 1.16C46.0027 1.58666 46.024 4.36 46.024 9.48C46.024 15.1547 45.96 18.0773 45.832 18.248L45.576 18.376C45.4053 18.4613 44.7227 18.504 43.528 18.504C42.3333 18.504 41.6507 18.4613 41.48 18.376C41.1813 18.1627 41.0107 17.8427 40.968 17.416C40.6267 14.2587 39.496 11.528 37.576 9.224C36.7227 8.28533 35.912 7.53866 35.144 6.984C33.7787 6.00266 32.3493 5.40533 30.856 5.192C28.9787 4.808 26.6747 4.91466 23.944 5.512C21.2133 6.06666 19.016 7.048 17.352 8.456C16.3707 9.224 15.6453 9.992 15.176 10.76C13.384 13.3627 12.488 17.4587 12.488 23.048C12.488 28.8933 13.4907 33.1173 15.496 35.72C15.7093 36.0187 15.9653 36.3173 16.264 36.616C16.8187 37.1707 17.1813 37.512 17.352 37.64C19.016 39.048 21.2133 40.0293 23.944 40.584C26.3333 41.096 28.4453 41.2453 30.28 41.032C34.1627 40.648 37.1707 38.92 39.304 35.848C40.584 34.056 41.288 32.072 41.416 29.896C41.416 29.1707 41.5653 28.7227 41.864 28.552C42.0347 28.4667 42.6533 28.424 43.72 28.424C44.7867 28.424 45.4053 28.4667 45.576 28.552C45.8747 28.7653 46.024 29.256 46.024 30.024C45.896 32.072 45.4267 33.928 44.616 35.592C42.6107 39.7733 39.176 42.7173 34.312 44.424C32.52 45.064 30.6213 45.4693 28.616 45.64C27.2507 45.768 25.5227 45.7467 23.432 45.576C18.056 44.9787 13.576 43.4427 9.992 40.968C6.57867 38.4507 4.14667 35.3147 2.696 31.56C2.056 29.9387 1.56533 28.0187 1.224 25.8C1.05333 24.264 1.05333 22.5147 1.224 20.552C1.224 20.424 1.224 20.3173 1.224 20.232C1.65067 16.8187 2.71733 13.7467 4.424 11.016C7.02667 6.792 10.9733 3.784 16.264 1.992C18.9947 1.13866 21.9173 0.626664 25.032 0.455997ZM59.2755 0.584C59.3608 0.541331 59.7448 0.519997 60.4275 0.519997C61.1528 0.605331 61.6222 0.669332 61.8355 0.711998C63.4995 1.224 64.6942 2.20533 65.4195 3.656C65.8035 4.46666 65.9955 5.256 65.9955 6.024C65.9955 6.83466 65.8035 7.624 65.4195 8.392C64.6942 9.88533 63.4995 10.888 61.8355 11.4C61.4515 11.4853 60.9182 11.528 60.2355 11.528C59.5102 11.528 58.9768 11.4853 58.6355 11.4C56.9288 10.888 55.7128 9.88533 54.9875 8.392C54.6462 7.70933 54.4755 6.92 54.4755 6.024C54.4755 5.42666 54.4968 5 54.5395 4.744C54.7528 3.976 55.1368 3.25067 55.6915 2.568C56.5875 1.50133 57.7822 0.839999 59.2755 0.584ZM58.8275 16.456C63.0942 16.2853 65.1422 16.2 64.9715 16.2H65.3555V28.296V40.392H67.3395H69.3235V42.696V45H68.7475L64.6515 44.872C62.3048 44.8293 59.8728 44.8293 57.3555 44.872L53.0035 45H52.4275V42.696V40.392H54.6675H56.8435V31.624C56.8435 25.6933 56.8222 22.6427 56.7795 22.472C56.6088 21.96 56.3315 21.6613 55.9475 21.576C55.3502 21.4053 54.4968 21.32 53.3875 21.32H52.6195V19.016V16.712H52.8115L58.8275 16.456ZM80.673 4.744V4.36H82.977H85.281V10.44V16.584H89.569H93.857V18.888V21.192H89.569H85.281V29.896C85.3237 35.912 85.409 39.112 85.537 39.496C85.537 39.5387 85.601 39.6667 85.729 39.88C85.985 40.392 86.369 40.776 86.881 41.032C87.0943 41.1173 87.4143 41.16 87.841 41.16C88.2677 41.16 88.545 41.1173 88.673 41.032C89.3557 40.776 89.889 39.9867 90.273 38.664C90.3583 38.3653 90.4223 37.448 90.465 35.912V33.672H92.769H95.073V35.72C95.073 37.512 94.9237 38.8347 94.625 39.688C94.1557 41.096 93.3237 42.312 92.129 43.336C90.721 44.4027 89.185 45.064 87.521 45.32C87.137 45.3627 86.4757 45.384 85.537 45.384C83.7877 45.3413 82.3583 45.0853 81.249 44.616C79.841 44.1467 78.689 43.2933 77.793 42.056C77.1103 41.1173 76.6623 39.9013 76.449 38.408C76.4063 38.1947 76.385 35.2293 76.385 29.512V21.192H74.209H71.969V19.272V17.288H72.545C73.9103 17.16 75.1263 16.6907 76.193 15.88C78.369 14.1733 79.7557 11.4853 80.353 7.816C80.5663 6.664 80.673 5.64 80.673 4.744ZM100.914 18.888V16.584H101.426L105.33 16.712C107.634 16.7547 110.087 16.7547 112.69 16.712L117.17 16.584H117.746V18.888V21.192H116.338C115.442 21.192 114.994 21.2347 114.994 21.32L117.938 27.912C119.815 32.136 120.797 34.248 120.882 34.248L126.578 21.32C126.578 21.2347 126.13 21.192 125.234 21.192H123.826V18.888V16.584H124.274L127.73 16.712C129.693 16.7547 131.506 16.7547 133.17 16.712C135.005 16.6267 135.943 16.584 135.986 16.584H136.37V18.888V21.192H134.002H131.634L125.49 35.272C121.053 45.1707 118.834 50.1413 118.834 50.184C117.17 53.4693 114.802 55.7093 111.73 56.904C109.383 57.928 107.229 58.12 105.266 57.48C103.09 56.712 101.661 55.24 100.978 53.064C100.722 52.296 100.615 51.528 100.658 50.76C100.701 49.6507 101.106 48.6907 101.874 47.88C102.429 47.368 103.069 47.0053 103.794 46.792C104.178 46.664 104.626 46.6 105.138 46.6C105.65 46.6 106.098 46.664 106.482 46.792C107.207 47.0053 107.847 47.368 108.402 47.88C109.085 48.648 109.49 49.5653 109.618 50.632V51.08H107.442H105.266V51.464C105.394 52.7013 105.949 53.4907 106.93 53.832C107.741 54.088 108.85 53.9173 110.258 53.32C111.965 52.5093 113.202 51.3147 113.97 49.736L116.082 45C116.082 44.9573 114.333 40.968 110.834 33.032L105.65 21.192H103.282H100.914V18.888Z" fill="#080A1D"/>
<path d="M142.093 2.184V1.8H163.661H185.293V2.184L185.997 10.312C186.381 15.6453 186.594 18.3547 186.637 18.44V18.824H184.333C182.797 18.824 182.029 18.8027 182.029 18.76C182.029 17.9067 181.922 16.7973 181.709 15.432C181.453 13.512 181.09 11.9333 180.621 10.696C179.981 9.20266 178.893 8.09333 177.357 7.368C176.717 7.02667 175.864 6.77067 174.797 6.6C174.413 6.51466 173.325 6.45066 171.533 6.408H169.037V23.368V40.392H173.965H178.829V42.696V45H177.805L170.253 44.872C165.858 44.8293 161.485 44.8293 157.133 44.872L149.581 45H148.557V42.696V40.392H153.485H158.349V23.368V6.408H155.853C154.061 6.45066 152.973 6.51466 152.589 6.6C150.584 6.984 149.048 7.73067 147.981 8.84C147.298 9.52267 146.744 10.5467 146.317 11.912C145.976 13.1493 145.698 15.048 145.485 17.608C145.4 18.3333 145.357 18.7173 145.357 18.76C145.357 18.8027 144.589 18.824 143.053 18.824H140.749V18.44L141.453 10.312C141.837 4.97866 142.05 2.26933 142.093 2.184Z" fill="#972121"/>
</svg>
