<svg width="112" height="48" viewBox="0 0 112 48" fill="none" xmlns="http://www.w3.org/2000/svg">
<path d="M15.899 33.516C13.8063 33.516 11.8427 33.0717 10.008 32.183C8.202 31.2657 6.62533 30.033 5.278 28.485C3.93067 26.9083 2.87 25.1167 2.096 23.11C1.35067 21.1033 0.978 18.9963 0.978 16.789C0.978 14.5817 1.365 12.4747 2.139 10.468C2.913 8.46133 3.97367 6.684 5.321 5.136C6.697 3.55933 8.30233 2.32667 10.137 1.438C11.9717 0.520665 13.9353 0.0619986 16.028 0.0619986C17.3753 0.0619986 18.6367 0.276998 19.812 0.706998C21.016 1.137 22.1627 1.81066 23.252 2.728L24.929 0.578H26.004V10.296H24.929C24.6137 8.69067 24.112 7.21433 23.424 5.867C22.736 4.491 21.79 3.40167 20.586 2.599C19.4107 1.76766 17.877 1.352 15.985 1.352C14.7523 1.352 13.6343 1.58133 12.631 2.04C11.6563 2.47 10.8107 3.25833 10.094 4.405C9.37733 5.523 8.81833 7.08533 8.417 9.092C8.04433 11.0987 7.858 13.6643 7.858 16.789C7.858 19.9137 8.04433 22.4793 8.417 24.486C8.78967 26.4927 9.32 28.0693 10.008 29.216C10.7247 30.334 11.5703 31.1223 12.545 31.581C13.5483 32.011 14.6663 32.226 15.899 32.226C17.877 32.226 19.4967 31.8533 20.758 31.108C22.0193 30.3627 23.0083 29.3593 23.725 28.098C24.4417 26.8367 24.972 25.432 25.316 23.884H26.391V33H25.316L23.854 31.022C22.7073 31.882 21.446 32.5127 20.07 32.914C18.694 33.3153 17.3037 33.516 15.899 33.516ZM36.2175 32.355V14.725H40.9475V32.355H36.2175ZM32.8205 33V31.925H44.3875V33H32.8205ZM32.3905 15.112V14.037H40.9475V15.112H32.3905ZM38.4965 7.286C37.7225 7.286 37.0488 7.01366 36.4755 6.469C35.9308 5.89567 35.6585 5.222 35.6585 4.448C35.6585 3.674 35.9308 3.01466 36.4755 2.47C37.0488 1.89667 37.7225 1.61 38.4965 1.61C39.2705 1.61 39.9298 1.89667 40.4745 2.47C41.0478 3.01466 41.3345 3.674 41.3345 4.448C41.3345 5.222 41.0478 5.89567 40.4745 6.469C39.9298 7.01366 39.2705 7.286 38.4965 7.286ZM56.228 33.559C54.7373 33.559 53.6193 33.258 52.874 32.656C52.1573 32.054 51.799 31.151 51.799 29.947V14.768H48.316V13.693C49.3193 13.607 50.251 13.22 51.111 12.532C51.9996 11.8153 52.8023 10.9123 53.519 9.823C54.2643 8.73367 54.8663 7.544 55.325 6.254H56.529V13.693H61.474V14.768H56.529V29.646C56.529 30.936 57.0593 31.581 58.12 31.581C58.722 31.581 59.2666 31.3803 59.754 30.979C60.27 30.549 60.8003 29.8467 61.345 28.872L62.205 29.345C61.4883 30.9217 60.6713 32.0253 59.754 32.656C58.8366 33.258 57.6613 33.559 56.228 33.559ZM69.0641 47.018C68.3475 47.018 67.7885 46.8747 67.3871 46.588C66.9858 46.3013 66.6991 45.9573 66.5271 45.556C66.3838 45.1547 66.3121 44.782 66.3121 44.438C66.3121 43.75 66.5128 43.191 66.9141 42.761C67.3441 42.3597 67.8745 42.159 68.5051 42.159C69.0785 42.159 69.5228 42.288 69.8381 42.546C70.1535 42.8327 70.4115 43.105 70.6121 43.363C70.8415 43.6497 71.0851 43.793 71.3431 43.793C71.5725 43.793 71.7445 43.6927 71.8591 43.492C72.0025 43.2913 72.1171 43.062 72.2031 42.804L82.3941 14.424H83.9421L73.6221 42.288C72.9055 44.2087 72.1601 45.47 71.3861 46.072C70.6121 46.7027 69.8381 47.018 69.0641 47.018ZM76.0301 32.355L67.5591 14.08L72.7621 13.822L78.0511 26.163H78.3091L76.0301 32.355ZM65.3231 14.725V13.65H75.9871V14.725H65.3231ZM79.0831 14.725V13.65H87.1671V14.725H79.0831ZM97.2928 33C97.6007 30.9144 97.8247 28.7098 97.9647 26.3862C98.1186 24.0487 98.1956 21.5571 98.1956 18.9116C98.1956 15.3423 98.1256 12.3328 97.9857 9.8833C97.8457 7.43376 97.6777 5.54411 97.4818 4.21436C95.7741 4.32633 94.1714 4.57829 92.6737 4.97021C91.1759 5.36214 89.7692 5.89404 88.4534 6.56592C88.7334 6.03402 89.0133 5.32715 89.2933 4.44531C89.5592 3.54948 89.7482 2.49268 89.8602 1.2749L90.4061 1.44287C92.0578 1.96077 95.7671 2.21973 101.534 2.21973C105.369 2.21973 108.729 1.90479 111.612 1.2749C111.206 2.22673 110.891 3.12956 110.667 3.9834C110.457 4.82324 110.317 5.68408 110.247 6.56592L109.806 6.27197C108.099 5.13818 105.621 4.45931 102.374 4.23535C102.136 6.04102 101.954 7.93066 101.828 9.9043C101.702 11.8639 101.639 14.0475 101.639 16.4551C101.653 19.8285 101.716 22.6629 101.828 24.9585C101.94 27.2541 102.136 29.0387 102.416 30.3125L102.584 31.0684C101.94 31.1383 101.345 31.2433 100.799 31.3833C100.253 31.5233 99.7563 31.6912 99.3084 31.8872C98.8745 32.0832 98.4896 32.2791 98.1536 32.4751C97.8177 32.6571 97.5307 32.832 97.2928 33Z" fill="#060718"/>
<path d="M10.008 32.183L9.55514 33.0746L9.56356 33.0789L9.57207 33.083L10.008 32.183ZM5.278 28.485L4.51774 29.1347L4.5237 29.1415L5.278 28.485ZM2.096 23.11L1.1585 23.4582L1.163 23.4699L2.096 23.11ZM2.139 10.468L1.206 10.1081L1.206 10.1081L2.139 10.468ZM5.321 5.136L4.56757 4.47847L4.5667 4.47948L5.321 5.136ZM10.137 1.438L10.573 2.33805L10.5842 2.33243L10.137 1.438ZM19.812 0.706998L19.4684 1.64615L19.4757 1.64874L19.812 0.706998ZM23.252 2.728L22.6079 3.49291L23.402 4.16164L24.0405 3.34303L23.252 2.728ZM24.929 0.578V-0.422H24.4408L24.1405 -0.0370328L24.929 0.578ZM26.004 0.578H27.004V-0.422H26.004V0.578ZM26.004 10.296V11.296H27.004V10.296H26.004ZM24.929 10.296L23.9478 10.4887L24.1063 11.296H24.929V10.296ZM23.424 5.867L22.5295 6.31423L22.5334 6.32178L23.424 5.867ZM20.586 2.599L20.0085 3.41541L20.0198 3.42339L20.0313 3.43105L20.586 2.599ZM12.631 2.04L13.0347 2.955L13.0468 2.94947L12.631 2.04ZM10.094 4.405L10.9359 4.9447L10.942 4.935L10.094 4.405ZM8.417 9.092L7.43633 8.89586L7.43381 8.90941L8.417 9.092ZM8.417 24.486L9.40019 24.3034L9.40019 24.3034L8.417 24.486ZM10.008 29.216L9.15051 29.7305L9.15813 29.7432L9.16612 29.7557L10.008 29.216ZM12.545 31.581L12.1192 32.4858L12.135 32.4933L12.1511 32.5001L12.545 31.581ZM20.758 31.108L21.2667 31.9689L21.2667 31.9689L20.758 31.108ZM23.725 28.098L24.5945 28.592L24.5945 28.592L23.725 28.098ZM25.316 23.884V22.884H24.5138L24.3398 23.6671L25.316 23.884ZM26.391 23.884H27.391V22.884H26.391V23.884ZM26.391 33V34H27.391V33H26.391ZM25.316 33L24.5118 33.5944L24.8116 34H25.316V33ZM23.854 31.022L24.6582 30.4276L24.0596 29.6178L23.254 30.222L23.854 31.022ZM20.07 32.914L19.79 31.954L19.79 31.954L20.07 32.914ZM15.899 32.516C13.9532 32.516 12.139 32.1041 10.4439 31.283L9.57207 33.083C11.5463 34.0393 13.6595 34.516 15.899 34.516V32.516ZM10.4609 31.2914C8.77106 30.4331 7.29634 29.2808 6.03231 27.8285L4.5237 29.1415C5.95432 30.7852 7.63294 32.0982 9.55514 33.0746L10.4609 31.2914ZM6.03823 27.8353C4.7672 26.348 3.76377 24.6551 3.029 22.7501L1.163 23.4699C1.97623 25.5783 3.09414 27.4687 4.51777 29.1347L6.03823 27.8353ZM3.03343 22.7618C2.33077 20.87 1.978 18.8812 1.978 16.789H-0.0219998C-0.0219998 19.1114 0.370566 21.3366 1.15857 23.4582L3.03343 22.7618ZM1.978 16.789C1.978 14.7014 2.34346 12.7167 3.072 10.8279L1.206 10.1081C0.386542 12.2326 -0.0219998 14.4619 -0.0219998 16.789H1.978ZM3.072 10.8279C3.80617 8.92446 4.80796 7.24862 6.0753 5.79252L4.5667 4.47948C3.13938 6.11937 2.01983 7.9982 1.206 10.1081L3.072 10.8279ZM6.07442 5.79353C7.36438 4.31546 8.86257 3.16643 10.5729 2.33798L9.70107 0.538018C7.7421 1.4869 6.02962 2.80321 4.56758 4.47847L6.07442 5.79353ZM10.5842 2.33243C12.2771 1.48596 14.0873 1.062 16.028 1.062V-0.938001C13.7833 -0.938001 11.6662 -0.444629 9.68979 0.543572L10.5842 2.33243ZM16.028 1.062C17.2671 1.062 18.4113 1.25938 19.4684 1.64612L20.1556 -0.232125C18.862 -0.705379 17.4835 -0.938001 16.028 -0.938001V1.062ZM19.4757 1.64874C20.5553 2.03431 21.5994 2.64369 22.6079 3.49291L23.8961 1.96309C22.7259 0.977635 21.4767 0.239681 20.1483 -0.234744L19.4757 1.64874ZM24.0405 3.34303L25.7175 1.19303L24.1405 -0.0370328L22.4635 2.11297L24.0405 3.34303ZM24.929 1.578H26.004V-0.422H24.929V1.578ZM25.004 0.578V10.296H27.004V0.578H25.004ZM26.004 9.296H24.929V11.296H26.004V9.296ZM25.9103 10.1033C25.5785 8.41417 25.0481 6.8487 24.3146 5.41222L22.5334 6.32178C23.1759 7.57996 23.6489 8.96716 23.9478 10.4887L25.9103 10.1033ZM24.3184 5.41978C23.5577 3.89831 22.4987 2.67227 21.1407 1.76695L20.0313 3.43105C21.0813 4.13106 21.9143 5.08368 22.5296 6.31421L24.3184 5.41978ZM21.1635 1.78258C19.7733 0.799326 18.0194 0.351997 15.985 0.351997V2.352C17.7346 2.352 19.048 2.736 20.0085 3.41541L21.1635 1.78258ZM15.985 0.351997C14.6258 0.351997 13.3636 0.605549 12.2152 1.13052L13.0468 2.94947C13.905 2.55711 14.8789 2.352 15.985 2.352V0.351997ZM12.2274 1.12508C11.0256 1.65528 10.0403 2.60411 9.246 3.875L10.942 4.935C11.581 3.91256 12.2871 3.28471 13.0346 2.95492L12.2274 1.12508ZM9.25212 3.86533C8.44199 5.12914 7.85038 6.82609 7.43642 8.89588L9.39758 9.28811C9.78629 7.34457 10.3127 5.91685 10.9359 4.94467L9.25212 3.86533ZM7.43381 8.90941C7.04574 10.9991 6.858 13.6317 6.858 16.789H8.858C8.858 13.697 9.04293 11.1983 9.40019 9.27459L7.43381 8.90941ZM6.858 16.789C6.858 19.9463 7.04574 22.5789 7.43381 24.6686L9.40019 24.3034C9.04293 22.3797 8.858 19.881 8.858 16.789H6.858ZM7.43381 24.6686C7.818 26.7373 8.37771 28.4425 9.15051 29.7305L10.8655 28.7015C10.2623 27.6962 9.76133 26.248 9.40019 24.3034L7.43381 24.6686ZM9.16612 29.7557C9.9607 30.9952 10.9385 31.9302 12.1192 32.4858L12.9708 30.6762C12.2022 30.3145 11.4886 29.6728 10.8499 28.6763L9.16612 29.7557ZM12.1511 32.5001C13.294 32.99 14.5484 33.226 15.899 33.226V31.226C14.7843 31.226 13.8027 31.032 12.9389 30.6619L12.1511 32.5001ZM15.899 33.226C17.9955 33.226 19.8065 32.8318 21.2667 31.9689L20.2493 30.2471C19.1868 30.8749 17.7585 31.226 15.899 31.226V33.226ZM21.2667 31.9689C22.6767 31.1358 23.7907 30.0066 24.5945 28.592L22.8555 27.604C22.226 28.7121 21.362 29.5896 20.2493 30.2471L21.2667 31.9689ZM24.5945 28.592C25.3646 27.2365 25.9286 25.7371 26.2922 24.1009L24.3398 23.6671C24.0154 25.1269 23.5187 26.4368 22.8555 27.604L24.5945 28.592ZM25.316 24.884H26.391V22.884H25.316V24.884ZM25.391 23.884V33H27.391V23.884H25.391ZM26.391 32H25.316V34H26.391V32ZM26.1202 32.4056L24.6582 30.4276L23.0498 31.6164L24.5118 33.5944L26.1202 32.4056ZM23.254 30.222C22.2035 31.0099 21.0506 31.5863 19.79 31.954L20.35 33.874C21.8414 33.439 23.2112 32.7541 24.454 31.822L23.254 30.222ZM19.79 31.954C18.5031 32.3293 17.207 32.516 15.899 32.516V34.516C17.4004 34.516 18.8849 34.3013 20.35 33.874L19.79 31.954ZM36.2175 32.355H35.2175V33.355H36.2175V32.355ZM36.2175 14.725V13.725H35.2175V14.725H36.2175ZM40.9475 14.725H41.9475V13.725H40.9475V14.725ZM40.9475 32.355V33.355H41.9475V32.355H40.9475ZM32.8205 33H31.8205V34H32.8205V33ZM32.8205 31.925V30.925H31.8205V31.925H32.8205ZM44.3875 31.925H45.3875V30.925H44.3875V31.925ZM44.3875 33V34H45.3875V33H44.3875ZM32.3905 15.112H31.3905V16.112H32.3905V15.112ZM32.3905 14.037V13.037H31.3905V14.037H32.3905ZM40.9475 14.037H41.9475V13.037H40.9475V14.037ZM40.9475 15.112V16.112H41.9475V15.112H40.9475ZM36.4755 6.469L35.7505 7.15775L35.7682 7.17634L35.7868 7.194L36.4755 6.469ZM36.4755 2.47L35.7684 1.76289L35.7684 1.76289L36.4755 2.47ZM40.4745 2.47L39.7495 3.15875L39.7672 3.17734L39.7858 3.195L40.4745 2.47ZM40.4745 6.469L41.1816 7.17611L40.4745 6.469ZM37.2175 32.355V14.725H35.2175V32.355H37.2175ZM36.2175 15.725H40.9475V13.725H36.2175V15.725ZM39.9475 14.725V32.355H41.9475V14.725H39.9475ZM40.9475 31.355H36.2175V33.355H40.9475V31.355ZM33.8205 33V31.925H31.8205V33H33.8205ZM32.8205 32.925H44.3875V30.925H32.8205V32.925ZM43.3875 31.925V33H45.3875V31.925H43.3875ZM44.3875 32H32.8205V34H44.3875V32ZM33.3905 15.112V14.037H31.3905V15.112H33.3905ZM32.3905 15.037H40.9475V13.037H32.3905V15.037ZM39.9475 14.037V15.112H41.9475V14.037H39.9475ZM40.9475 14.112H32.3905V16.112H40.9475V14.112ZM38.4965 6.286C37.985 6.286 37.5562 6.11637 37.1643 5.744L35.7868 7.194C36.5415 7.91096 37.46 8.286 38.4965 8.286V6.286ZM37.2005 5.78025C36.8281 5.38828 36.6585 4.95953 36.6585 4.448H34.6585C34.6585 5.48447 35.0335 6.40305 35.7505 7.15775L37.2005 5.78025ZM36.6585 4.448C36.6585 3.93777 36.8265 3.53322 37.1826 3.17711L35.7684 1.76289C35.0352 2.49611 34.6585 3.41023 34.6585 4.448H36.6585ZM37.1826 3.17711C37.5783 2.78138 38.0014 2.61 38.4965 2.61V0.609999C37.4436 0.609999 36.5193 1.01196 35.7684 1.76289L37.1826 3.17711ZM38.4965 2.61C38.9897 2.61 39.389 2.77927 39.7495 3.15875L41.1995 1.78125C40.4707 1.01406 39.5513 0.609999 38.4965 0.609999V2.61ZM39.7858 3.195C40.1652 3.5555 40.3345 3.95476 40.3345 4.448H42.3345C42.3345 3.39323 41.9304 2.47383 41.1633 1.745L39.7858 3.195ZM40.3345 4.448C40.3345 4.94306 40.1631 5.36616 39.7674 5.76189L41.1816 7.17611C41.9326 6.42517 42.3345 5.50094 42.3345 4.448H40.3345ZM39.7674 5.76189C39.4113 6.118 39.0067 6.286 38.4965 6.286V8.286C39.5343 8.286 40.4484 7.90933 41.1816 7.17611L39.7674 5.76189ZM52.874 32.656L52.2308 33.4217L52.2381 33.4279L52.2456 33.4339L52.874 32.656ZM51.799 14.768H52.799V13.768H51.799V14.768ZM48.316 14.768H47.316V15.768H48.316V14.768ZM48.316 13.693L48.2306 12.6967L47.316 12.775V13.693H48.316ZM51.111 12.532L51.7357 13.3129L51.7387 13.3104L51.111 12.532ZM53.519 9.823L52.6937 9.25831L52.6885 9.2658L52.6835 9.27338L53.519 9.823ZM55.325 6.254V5.254H54.6192L54.3827 5.91899L55.325 6.254ZM56.529 6.254H57.529V5.254H56.529V6.254ZM56.529 13.693H55.529V14.693H56.529V13.693ZM61.474 13.693H62.474V12.693H61.474V13.693ZM61.474 14.768V15.768H62.474V14.768H61.474ZM56.529 14.768V13.768H55.529V14.768H56.529ZM59.754 30.979L60.3897 31.7509L60.3941 31.7472L59.754 30.979ZM61.345 28.872L61.8269 27.9958L60.9566 27.5171L60.472 28.3842L61.345 28.872ZM62.205 29.345L63.1153 29.7588L63.4987 28.9153L62.6869 28.4688L62.205 29.345ZM59.754 32.656L60.3026 33.492L60.3116 33.4861L60.3205 33.48L59.754 32.656ZM56.228 32.559C54.8458 32.559 53.9946 32.2757 53.5023 31.8781L52.2456 33.4339C53.244 34.2403 54.6288 34.559 56.228 34.559V32.559ZM53.5172 31.8903C53.0882 31.53 52.799 30.9467 52.799 29.947H50.799C50.799 31.3553 51.2264 32.578 52.2308 33.4217L53.5172 31.8903ZM52.799 29.947V14.768H50.799V29.947H52.799ZM51.799 13.768H48.316V15.768H51.799V13.768ZM49.316 14.768V13.693H47.316V14.768H49.316ZM48.4014 14.6893C49.6202 14.5849 50.7363 14.1124 51.7357 13.3129L50.4863 11.7511C49.7657 12.3276 49.0183 12.6291 48.2306 12.6967L48.4014 14.6893ZM51.7387 13.3104C52.7186 12.5202 53.5887 11.5364 54.3544 10.3726L52.6835 9.27338C52.0159 10.2882 51.2807 11.1105 50.4832 11.7536L51.7387 13.3104ZM54.3443 10.3877C55.1401 9.22454 55.7807 7.95725 56.2672 6.58901L54.3827 5.91899C53.9519 7.13075 53.3885 8.24279 52.6937 9.25831L54.3443 10.3877ZM55.325 7.254H56.529V5.254H55.325V7.254ZM55.529 6.254V13.693H57.529V6.254H55.529ZM56.529 14.693H61.474V12.693H56.529V14.693ZM60.474 13.693V14.768H62.474V13.693H60.474ZM61.474 13.768H56.529V15.768H61.474V13.768ZM55.529 14.768V29.646H57.529V14.768H55.529ZM55.529 29.646C55.529 30.4028 55.6805 31.1562 56.1543 31.7324C56.6589 32.346 57.3782 32.581 58.12 32.581V30.581C57.801 30.581 57.7249 30.4935 57.6991 30.4621C57.6426 30.3933 57.529 30.1792 57.529 29.646H55.529ZM58.12 32.581C58.9658 32.581 59.7327 32.2919 60.3897 31.7509L59.1183 30.2071C58.8005 30.4687 58.4781 30.581 58.12 30.581V32.581ZM60.3941 31.7472C61.0463 31.2038 61.6477 30.3801 62.2179 29.3598L60.472 28.3842C59.9529 29.3132 59.4937 29.8942 59.1138 30.2108L60.3941 31.7472ZM60.863 29.7482L61.723 30.2212L62.6869 28.4688L61.8269 27.9958L60.863 29.7482ZM61.2946 28.9312C60.6149 30.4266 59.8937 31.3464 59.1874 31.832L60.3205 33.48C61.4489 32.7043 62.3617 31.4167 63.1153 29.7588L61.2946 28.9312ZM59.2053 31.82C58.494 32.2867 57.5252 32.559 56.228 32.559V34.559C57.7974 34.559 59.1792 34.2293 60.3026 33.492L59.2053 31.82ZM67.3871 46.588L66.8059 47.4017L66.8059 47.4017L67.3871 46.588ZM66.5271 45.556L65.5854 45.8923L65.5958 45.9215L65.608 45.9499L66.5271 45.556ZM66.9141 42.761L66.2318 42.0299L66.2066 42.0535L66.1831 42.0787L66.9141 42.761ZM69.8381 42.546L70.5108 41.8061L70.4915 41.7885L70.4714 41.772L69.8381 42.546ZM70.6121 43.363L69.8227 43.977L69.8313 43.9877L70.6121 43.363ZM71.8591 43.492L71.0454 42.9108L71.016 42.9519L70.9909 42.9959L71.8591 43.492ZM72.2031 42.804L71.262 42.466L71.2581 42.4769L71.2545 42.4878L72.2031 42.804ZM82.3941 14.424V13.424H81.6907L81.453 14.086L82.3941 14.424ZM83.9421 14.424L84.8799 14.7713L85.3789 13.424H83.9421V14.424ZM73.6221 42.288L74.559 42.6376L74.5599 42.6353L73.6221 42.288ZM71.3861 46.072L70.7722 45.2826L70.7632 45.2896L70.7545 45.2968L71.3861 46.072ZM76.0301 32.355L75.1229 32.7755L76.1363 34.9618L76.9686 32.7004L76.0301 32.355ZM67.5591 14.08L67.5096 13.0812L66.028 13.1547L66.6519 14.5005L67.5591 14.08ZM72.7621 13.822L73.6813 13.4281L73.4073 12.7888L72.7126 12.8232L72.7621 13.822ZM78.0511 26.163L77.132 26.5569L77.3917 27.163H78.0511V26.163ZM78.3091 26.163L79.2476 26.5084L79.7428 25.163H78.3091V26.163ZM65.3231 14.725H64.3231V15.725H65.3231V14.725ZM65.3231 13.65V12.65H64.3231V13.65H65.3231ZM75.9871 13.65H76.9871V12.65H75.9871V13.65ZM75.9871 14.725V15.725H76.9871V14.725H75.9871ZM79.0831 14.725H78.0831V15.725H79.0831V14.725ZM79.0831 13.65V12.65H78.0831V13.65H79.0831ZM87.1671 13.65H88.1671V12.65H87.1671V13.65ZM87.1671 14.725V15.725H88.1671V14.725H87.1671ZM69.0641 46.018C68.4655 46.018 68.139 45.8961 67.9684 45.7743L66.8059 47.4017C67.4379 47.8532 68.2294 48.018 69.0641 48.018V46.018ZM67.9684 45.7743C67.6962 45.5799 67.5372 45.3742 67.4463 45.1621L65.608 45.9499C65.8611 46.5405 66.2754 47.0228 66.8059 47.4017L67.9684 45.7743ZM67.4689 45.2197C67.3552 44.9015 67.3121 44.6437 67.3121 44.438H65.3121C65.3121 44.9203 65.4124 45.4079 65.5854 45.8923L67.4689 45.2197ZM67.3121 44.438C67.3121 43.9574 67.4456 43.6571 67.6452 43.4433L66.1831 42.0787C65.58 42.7249 65.3121 43.5426 65.3121 44.438H67.3121ZM67.5965 43.4921C67.8271 43.2767 68.1077 43.159 68.5051 43.159V41.159C67.6412 41.159 66.8611 41.4426 66.2318 42.0299L67.5965 43.4921ZM68.5051 43.159C68.9402 43.159 69.1287 43.2576 69.2049 43.32L70.4714 41.772C69.9169 41.3184 69.2168 41.159 68.5051 41.159V43.159ZM69.1655 43.2859C69.4504 43.5449 69.666 43.7754 69.8228 43.9769L71.4015 42.7491C71.1569 42.4346 70.8566 42.1204 70.5108 41.8061L69.1655 43.2859ZM69.8313 43.9877C70.1664 44.4066 70.6685 44.793 71.3431 44.793V42.793C71.3726 42.793 71.4014 42.7973 71.427 42.8046C71.4521 42.8118 71.468 42.8201 71.4739 42.8236C71.4794 42.8268 71.4742 42.8246 71.4595 42.8112C71.4447 42.7977 71.4221 42.7747 71.393 42.7383L69.8313 43.9877ZM71.3431 44.793C71.9348 44.793 72.4364 44.4974 72.7274 43.9881L70.9909 42.9959C71.0065 42.9686 71.0518 42.9056 71.1403 42.854C71.2291 42.8021 71.308 42.793 71.3431 42.793V44.793ZM72.6729 44.0732C72.8798 43.7836 73.0375 43.4632 73.1518 43.1202L71.2545 42.4878C71.1968 42.6608 71.1252 42.7991 71.0454 42.9108L72.6729 44.0732ZM73.1443 43.142L83.3353 14.762L81.453 14.086L71.262 42.466L73.1443 43.142ZM82.3941 15.424H83.9421V13.424H82.3941V15.424ZM83.0044 14.0767L72.6844 41.9407L74.5599 42.6353L84.8799 14.7713L83.0044 14.0767ZM72.6852 41.9384C71.9766 43.8374 71.3101 44.8643 70.7722 45.2826L72.0001 46.8614C73.0102 46.0757 73.8343 44.5799 74.559 42.6376L72.6852 41.9384ZM70.7545 45.2968C70.1064 45.8248 69.5483 46.018 69.0641 46.018V48.018C70.1279 48.018 71.1179 47.5805 72.0178 46.8472L70.7545 45.2968ZM76.9374 31.9345L68.4664 13.6595L66.6519 14.5005L75.1229 32.7755L76.9374 31.9345ZM67.6087 15.0788L72.8117 14.8208L72.7126 12.8232L67.5096 13.0812L67.6087 15.0788ZM71.843 14.2159L77.132 26.5569L78.9703 25.7691L73.6813 13.4281L71.843 14.2159ZM78.0511 27.163H78.3091V25.163H78.0511V27.163ZM77.3707 25.8176L75.0917 32.0096L76.9686 32.7004L79.2476 26.5084L77.3707 25.8176ZM66.3231 14.725V13.65H64.3231V14.725H66.3231ZM65.3231 14.65H75.9871V12.65H65.3231V14.65ZM74.9871 13.65V14.725H76.9871V13.65H74.9871ZM75.9871 13.725H65.3231V15.725H75.9871V13.725ZM80.0831 14.725V13.65H78.0831V14.725H80.0831ZM79.0831 14.65H87.1671V12.65H79.0831V14.65ZM86.1671 13.65V14.725H88.1671V13.65H86.1671ZM87.1671 13.725H79.0831V15.725H87.1671V13.725ZM97.2928 33L96.3035 32.8539L95.9626 35.163L97.8695 33.817L97.2928 33ZM97.9647 26.3862L96.9668 26.3205L96.9665 26.3261L97.9647 26.3862ZM97.9857 9.8833L96.9873 9.94035L97.9857 9.8833ZM97.4818 4.21436L98.4711 4.06856L98.3366 3.15615L97.4163 3.2165L97.4818 4.21436ZM88.4534 6.56592L87.5685 6.10017L86.0999 8.89056L88.9082 7.45652L88.4534 6.56592ZM89.2933 4.44531L90.2464 4.74789L90.2493 4.73893L90.2519 4.72991L89.2933 4.44531ZM89.8602 1.2749L90.1543 0.319123L88.9771 -0.0430651L88.8644 1.18333L89.8602 1.2749ZM90.4061 1.44287L90.7053 0.488666L90.7002 0.487092L90.4061 1.44287ZM111.612 1.2749L112.532 1.66719L113.292 -0.115713L111.399 0.29794L111.612 1.2749ZM110.667 3.9834L109.7 3.72967L109.697 3.74086L110.667 3.9834ZM110.247 6.56592L109.693 7.39797L111.11 8.34253L111.244 6.64503L110.247 6.56592ZM109.806 6.27197L110.361 5.43992L110.36 5.43887L109.806 6.27197ZM102.374 4.23535L102.443 3.23772L101.505 3.17307L101.382 4.1047L102.374 4.23535ZM101.828 9.9043L102.826 9.96845L102.826 9.968L101.828 9.9043ZM101.639 16.4551L100.639 16.4551L100.639 16.4592L101.639 16.4551ZM102.416 30.3125L101.439 30.5272L101.44 30.5294L102.416 30.3125ZM102.584 31.0684L102.692 32.0625L103.802 31.9418L103.56 30.8514L102.584 31.0684ZM99.3084 31.8872L98.9076 30.971L98.8968 30.9758L99.3084 31.8872ZM98.1536 32.4751L98.6299 33.3544L98.6438 33.3469L98.6575 33.3389L98.1536 32.4751ZM98.2821 33.1461C98.5946 31.0292 98.8213 28.7958 98.9629 26.4464L96.9665 26.3261C96.8281 28.6238 96.6068 30.7996 96.3035 32.8539L98.2821 33.1461ZM98.9625 26.452C99.1181 24.0899 99.1956 21.5763 99.1956 18.9116H97.1956C97.1956 21.5379 97.1192 24.0074 96.9668 26.3205L98.9625 26.452ZM99.1956 18.9116C99.1956 15.331 99.1255 12.3012 98.984 9.82625L96.9873 9.94035C97.1258 12.3645 97.1956 15.3536 97.1956 18.9116H99.1956ZM98.984 9.82625C98.8435 7.36692 98.6735 5.44245 98.4711 4.06856L96.4924 4.36015C96.6819 5.64576 96.8479 7.50059 96.9873 9.94035L98.984 9.82625ZM97.4163 3.2165C95.6518 3.33221 93.9857 3.5932 92.4205 4.00279L92.9268 5.93764C94.357 5.56338 95.8964 5.32046 97.5472 5.21221L97.4163 3.2165ZM92.4205 4.00279C90.8563 4.41211 89.3817 4.9691 87.9987 5.67531L88.9082 7.45652C90.1567 6.81898 91.4955 6.31218 92.9268 5.93764L92.4205 4.00279ZM89.3384 7.03166C89.6563 6.42754 89.957 5.65942 90.2464 4.74789L88.3402 4.14273C88.0696 4.99487 87.8105 5.6405 87.5685 6.10017L89.3384 7.03166ZM90.2519 4.72991C90.5413 3.75529 90.7397 2.63086 90.856 1.36647L88.8644 1.18333C88.7567 2.35449 88.5772 3.34367 88.3346 4.16071L90.2519 4.72991ZM89.5661 2.23068L90.112 2.39865L90.7002 0.487092L90.1543 0.319123L89.5661 2.23068ZM90.1069 2.39706C91.0522 2.69347 92.4924 2.8929 94.3572 3.02308C96.244 3.1548 98.6384 3.21973 101.534 3.21973V1.21973C98.6626 1.21973 96.319 1.15517 94.4965 1.02794C92.6519 0.89917 91.4117 0.710176 90.7053 0.488679L90.1069 2.39706ZM101.534 3.21973C105.421 3.21973 108.855 2.90082 111.826 2.25186L111.399 0.29794C108.603 0.908748 105.318 1.21973 101.534 1.21973V3.21973ZM110.692 0.882616C110.27 1.87196 109.938 2.82133 109.7 3.72969L111.635 4.23711C111.844 3.43779 112.142 2.58149 112.532 1.66719L110.692 0.882616ZM109.697 3.74086C109.474 4.63551 109.325 5.55105 109.251 6.4868L111.244 6.64503C111.31 5.81711 111.441 5.01098 111.637 4.22593L109.697 3.74086ZM110.802 5.73387L110.361 5.43992L109.252 7.10402L109.693 7.39797L110.802 5.73387ZM110.36 5.43887C108.446 4.1686 105.771 3.46727 102.443 3.23772L102.305 5.23298C105.471 5.45135 107.751 6.10776 109.253 7.10507L110.36 5.43887ZM101.382 4.1047C101.141 5.93439 100.957 7.84646 100.83 9.8406L102.826 9.968C102.951 8.01487 103.13 6.14764 103.365 4.366L101.382 4.1047ZM100.83 9.84014C100.702 11.8253 100.639 14.0307 100.639 16.4551H102.639C102.639 14.0644 102.702 11.9026 102.826 9.96845L100.83 9.84014ZM100.639 16.4592C100.653 19.8413 100.716 22.6917 100.829 25.0072L102.827 24.9098C102.716 22.6341 102.653 19.8156 102.639 16.4509L100.639 16.4592ZM100.829 25.0072C100.942 27.3234 101.141 29.1727 101.439 30.5272L103.393 30.0978C103.13 28.9048 102.938 27.1848 102.827 24.9098L100.829 25.0072ZM101.44 30.5294L101.608 31.2853L103.56 30.8514L103.392 30.0956L101.44 30.5294ZM102.476 30.0742C101.791 30.1486 101.149 30.2612 100.551 30.4146L101.048 32.352C101.541 32.2254 102.088 32.1281 102.692 32.0625L102.476 30.0742ZM100.551 30.4146C99.9604 30.566 99.4116 30.7505 98.9076 30.971L99.7092 32.8034C100.101 32.6319 100.546 32.4805 101.048 32.352L100.551 30.4146ZM98.8968 30.9758C98.438 31.183 98.0214 31.3946 97.6498 31.6113L98.6575 33.3389C98.9578 33.1637 99.311 32.9833 99.72 32.7986L98.8968 30.9758ZM97.6773 31.5958C97.3168 31.7911 96.9944 31.9866 96.7161 32.183L97.8695 33.817C98.0671 33.6775 98.3186 33.523 98.6299 33.3544L97.6773 31.5958Z" fill="black"/>
</svg>
