<svg width="22" height="22" viewBox="0 0 22 22" fill="none" xmlns="http://www.w3.org/2000/svg">
<path fill-rule="evenodd" clip-rule="evenodd" d="M6.60265 0.397941C7.74044 0.346163 8.104 0.333496 11.0009 0.333496H10.9976C13.8954 0.333496 14.2576 0.346163 15.3954 0.397941C16.531 0.449942 17.3065 0.629721 17.9865 0.893502C18.6888 1.16573 19.2821 1.53018 19.8755 2.12351C20.4688 2.71641 20.8332 3.31153 21.1066 4.01309C21.3688 4.69132 21.5488 5.46644 21.6021 6.60201C21.6532 7.73979 21.6666 8.10335 21.6666 11.0003C21.6666 13.8972 21.6532 14.2599 21.6021 15.3977C21.5488 16.5328 21.3688 17.3081 21.1066 17.9866C20.8332 18.6879 20.4688 19.283 19.8755 19.8759C19.2828 20.4693 18.6886 20.8346 17.9872 21.107C17.3085 21.3708 16.5325 21.5506 15.397 21.6026C14.2592 21.6544 13.8967 21.667 10.9996 21.667C8.10289 21.667 7.73955 21.6544 6.60176 21.6026C5.46642 21.5506 4.69107 21.3708 4.0124 21.107C3.31128 20.8346 2.71617 20.4693 2.12349 19.8759C1.53038 19.283 1.16593 18.6879 0.893258 17.9863C0.629699 17.3081 0.44992 16.533 0.397697 15.3974C0.346141 14.2596 0.333252 13.8972 0.333252 11.0003C0.333252 8.10335 0.346585 7.73957 0.397475 6.60178C0.448586 5.46666 0.628588 4.69132 0.893036 4.01287C1.16637 3.31153 1.53082 2.71641 2.12416 2.12351C2.71705 1.5304 3.31217 1.16595 4.01373 0.893502C4.69196 0.629721 5.46708 0.449942 6.60265 0.397941ZM10.6454 2.25566C10.4297 2.25556 10.2299 2.25547 10.0441 2.25576V2.25309C8.05604 2.25532 7.67471 2.26865 6.6907 2.31309C5.65069 2.36087 5.08601 2.53421 4.71001 2.68088C4.21223 2.87465 3.85667 3.10577 3.48333 3.47911C3.10999 3.85244 2.87844 4.208 2.6851 4.70578C2.5391 5.08179 2.36532 5.64624 2.31776 6.68625C2.26665 7.81071 2.25643 8.14671 2.25643 10.9952C2.25643 13.8437 2.26665 14.1814 2.31776 15.3059C2.3651 16.3459 2.5391 16.9104 2.6851 17.2859C2.87888 17.7839 3.10999 18.1386 3.48333 18.5119C3.85667 18.8853 4.21223 19.1164 4.71001 19.3097C5.08624 19.4557 5.65069 19.6295 6.6907 19.6775C7.81515 19.7286 8.15271 19.7397 11.001 19.7397C13.849 19.7397 14.1868 19.7286 15.3112 19.6775C16.3512 19.6299 16.9161 19.4566 17.2917 19.3099C17.7897 19.1166 18.1441 18.8855 18.5175 18.5121C18.8908 18.139 19.1224 17.7846 19.3157 17.2868C19.4617 16.9112 19.6355 16.3468 19.6831 15.3068C19.7342 14.1823 19.7453 13.8445 19.7453 10.9979C19.7453 8.15115 19.7342 7.81337 19.6831 6.68892C19.6357 5.64891 19.4617 5.08446 19.3157 4.7089C19.1219 4.21111 18.8908 3.85555 18.5175 3.48222C18.1444 3.10888 17.7895 2.87777 17.2917 2.68443C16.9157 2.53843 16.3512 2.36465 15.3112 2.31709C14.1866 2.26598 13.849 2.25576 11.001 2.25576L10.6454 2.25566ZM5.52311 11.0001C5.52311 7.97499 7.9758 5.5223 11.0009 5.5223C14.026 5.52242 16.4779 7.97506 16.4779 11.0001C16.4779 14.0253 14.0261 16.4769 11.0009 16.4769C7.9758 16.4769 5.52311 14.0253 5.52311 11.0001ZM14.5565 11.0004C14.5565 9.03662 12.9645 7.44483 11.0009 7.44483C9.03711 7.44483 7.44531 9.03662 7.44531 11.0004C7.44531 12.964 9.03711 14.556 11.0009 14.556C12.9645 14.556 14.5565 12.964 14.5565 11.0004ZM15.4149 5.30654C15.4149 4.59965 15.9882 4.02697 16.6949 4.02697V4.02653C17.4016 4.02653 17.9749 4.59987 17.9749 5.30654C17.9749 6.01322 17.4016 6.58656 16.6949 6.58656C15.9882 6.58656 15.4149 6.01322 15.4149 5.30654Z" fill="white"/>
</svg>
