<svg width="40" height="40" viewBox="0 0 40 40" fill="none" xmlns="http://www.w3.org/2000/svg">
<path fill-rule="evenodd" clip-rule="evenodd" d="M16.6736 24.0685L16.6732 24.0682L16.6737 24.0678L16.6737 24.0677L16.6737 24.0678L25.9473 15.6991C26.3543 15.3378 25.8584 15.1617 25.3181 15.4893L13.8726 22.7102L8.92877 21.1671C7.86112 20.8402 7.85345 20.1066 9.16847 19.5791L28.4335 12.1506C29.3134 11.7512 30.1626 12.362 29.8267 13.7087L26.5459 29.1692C26.3168 30.2678 25.653 30.5306 24.7332 30.0231L19.7355 26.3307L17.3333 28.6665C17.3258 28.6739 17.3182 28.6812 17.3107 28.6885C17.0421 28.9501 16.8198 29.1665 16.3333 29.1665L16.6736 24.0685Z" fill="#1E2E36"/>
</svg>
