<svg width="22" height="19" viewBox="0 0 22 19" fill="none" xmlns="http://www.w3.org/2000/svg">
<path fill-rule="evenodd" clip-rule="evenodd" d="M8.52062 12.0386L8.52021 12.0383L8.52067 12.0379L8.52067 12.0378L8.52074 12.0378L17.7943 3.66912C18.2013 3.30789 17.7054 3.13174 17.1651 3.45939L5.71961 10.6802L0.775772 9.13717C-0.291878 8.81027 -0.299544 8.07662 1.01547 7.54917L20.2805 0.120674C21.1604 -0.278792 22.0096 0.332008 21.6737 1.67871L18.3929 17.1392C18.1638 18.2379 17.5 18.5006 16.5802 17.9931L11.5825 14.3008L9.18034 16.6366C9.17276 16.644 9.16523 16.6513 9.15773 16.6586C8.88905 16.9202 8.66676 17.1366 8.18034 17.1366L8.52062 12.0386Z" fill="white"/>
</svg>
