<svg width="272" height="272" viewBox="0 0 272 272" fill="none" xmlns="http://www.w3.org/2000/svg">
<path d="M264.436 178.768C253.954 174.821 246.664 171.656 242.573 169.243C235.153 165.131 230.256 157.015 227.895 144.88C225.938 134.798 227.249 125.344 231.839 116.569C236.424 107.772 243.545 101.795 253.184 98.647L252.764 96.483C260.006 94.186 266.182 92.14 271.289 90.34V89.12L238.323 98.004C236.922 98.492 233.659 98.167 228.531 97.031C220.927 95.305 214.103 91.238 208.059 84.827C202.006 78.435 198.224 71.322 196.703 63.501C194.778 53.615 196.389 44.881 201.529 37.254L200.112 36.571C204.177 29.66 207.656 23.709 210.55 18.709H208.529C204.724 24.485 201.599 29.326 199.149 33.232C195.83 38.148 193.365 41.94 191.751 44.603C187.768 49.429 181.162 52.749 171.901 54.551C154.414 57.953 139.816 53.208 128.138 40.306C125.071 36.648 123.249 33.898 122.686 32.078C120.587 21.872 118.797 13.625 117.325 7.33801H115.862C116.764 13.872 117.596 19.089 118.357 22.991L116.811 23.288C118.601 34.692 116.355 45.068 110.055 54.402C103.753 63.735 94.944 69.513 83.633 71.712C72.727 73.833 62.545 71.431 53.088 64.514L53.026 64.202L52.229 65.005C44.684 59.585 38.423 55.13 33.45 51.643H31.158C36.115 55.534 41.105 59.418 46.126 63.305C57.218 72.038 63.588 80.633 65.228 89.064C67.426 100.379 65.176 111.06 58.492 121.121C51.801 131.177 42.894 137.291 31.779 139.449C30.139 139.771 28.366 140 26.476 140.155L25.744 139.659C25.473 140.561 25.254 141.039 25.05 141.08L0 144.49V146.58C8.981 145.704 16.463 144.889 22.444 144.142L33.736 142.917C42.243 143.814 49.46 147.436 55.386 153.751C61.306 160.074 65.109 167.561 66.788 176.204C69.15 188.338 67.619 198.028 62.2 205.283C57.776 209.99 54.301 213.54 51.777 215.948C47.022 220.415 42.318 224.863 37.682 229.301H41.94C47.012 224.425 51.298 220.207 54.798 216.645L55.172 216.896C61.401 211.625 67.922 208.336 74.71 207.014C86.017 204.817 96.551 207.077 106.3 213.839C116.052 220.594 122.026 229.629 124.224 240.942C124.905 244.44 124.704 251.103 123.633 260.915L123.196 264.663H124.63C125.708 257.769 126.525 252.026 127.081 247.432C131.478 232.699 142.015 223.708 158.672 220.468C168.964 218.468 177.794 219.429 185.175 223.322C190.665 226.299 196.214 231.752 201.804 239.634C203.576 242.28 205.333 244.913 207.073 247.532H209.224L208.062 245.464C202.847 236.229 200.025 230.474 199.584 228.216C197.263 216.277 199.138 205.29 205.188 195.254C211.243 185.222 220.133 179.056 231.858 176.776C238.232 175.536 245.516 176.151 253.68 178.616L254.307 176.887C261.307 179.448 267.205 181.589 272 183.311V181.698C269.68 180.768 267.156 179.792 264.436 178.768ZM237.936 100.965C237.116 101.124 238.514 101.175 242.126 101.112C227.111 111.716 221.422 126.391 225.057 145.096C226.621 153.136 230.138 160.245 235.612 166.43L225.216 162.372L225.098 161.754C214.267 157.669 207.755 149.966 205.552 138.65C201.632 118.48 212.428 105.924 237.936 100.965ZM89.072 160.652C86.956 149.756 81.156 142.442 71.672 138.731C87.078 135.53 96.084 140.72 98.722 154.294C100.243 162.117 98.037 168.843 92.083 174.482L92.511 175.036L87.126 180.256C89.667 173.565 90.312 167.029 89.072 160.652ZM88.28 100.595C87.801 98.121 86.997 95.612 85.857 93.062C92.579 97.939 96.454 103.063 97.494 108.418C98.734 114.786 97.324 120.669 93.233 126.054C89.159 131.439 83.937 134.223 77.563 134.392L77.374 135.065L70.775 135.713C77.363 132.288 82.289 127.38 85.524 120.985C88.759 114.595 89.681 107.792 88.28 100.595ZM179.965 79.568C181.363 86.77 184.735 92.84 190.076 97.78C195.414 102.717 201.719 105.759 208.984 106.918L191.132 112.311C186.896 113.557 182.624 112.188 178.34 108.229C174.038 104.258 171.472 100.115 170.627 95.777C169.628 90.644 170.483 85.689 173.182 80.889L173.12 80.574L179.458 70.374C179.113 73.005 179.283 76.071 179.965 79.568ZM182.629 136.05C183.514 140.595 185.308 144.402 188.048 147.499L175.621 142.857L176.242 141.14L175.933 141.2C171.79 139.66 169.322 136.828 168.523 132.717C166.923 124.488 173.111 119.007 187.101 116.287L188.343 116.044C183.01 121.575 181.111 128.246 182.629 136.05ZM116.855 143.719C115.974 139.194 113.937 135.859 110.744 133.704L121.296 131.968L121.844 133.146L122.209 133.397C124.926 133.069 126.599 134.569 127.244 137.866C127.562 139.509 126.313 141.879 123.509 144.993C121.107 146.955 118.819 148.895 116.629 150.813C117.216 148.354 117.296 145.988 116.855 143.719ZM100.525 153.631C98.963 145.601 94.763 139.906 87.91 136.54L88.836 136.362C95.424 135.081 101.357 134.357 106.661 134.174C111.425 136.666 114.223 140.07 115.063 144.388C115.821 148.295 114.111 152.687 109.936 157.554C106.33 161.04 102.76 164.61 99.204 168.298C100.992 163.252 101.443 158.362 100.525 153.631ZM100.276 107.875C100.076 106.85 99.511 105.032 98.574 102.44C104.552 106.823 109.029 110.117 112.025 112.311L112.872 115.031C113.549 118.53 112.924 121.86 110.973 125.013C109.028 128.168 106.398 130.059 103.109 130.699L101.51 130.688L101.499 132.293L88.91 133.46C98.656 127.516 102.433 118.97 100.276 107.875ZM165.992 132.89C166.554 135.771 167.795 138.307 169.715 140.493L169.403 140.553C166.452 139.632 163.575 138.602 160.788 137.429C157.055 135.805 155.034 134.169 154.716 132.526C154.154 129.637 155.154 127.637 157.705 126.497C157.666 126.288 157.606 125.994 157.524 125.564L157.343 124.645L168.332 121.86C165.97 125.087 165.192 128.77 165.992 132.89ZM142.322 131.414L153.209 136.33C150.977 136.985 149.354 138.477 148.319 140.804L142.322 131.414ZM147.683 144.138C145.671 143.672 144.047 143.555 142.807 143.799C140.963 144.153 139.513 144.977 138.485 146.252C139.003 140.172 139.258 134.881 139.243 130.409L140.298 129.235L147.561 143.508L147.683 144.138ZM151.812 132.442L152.421 133.929C147.653 132.502 144.128 131.382 141.829 130.532L140.542 128.864C143.677 128.471 147.358 127.653 151.597 126.399L153.26 126.717C151.932 128.683 151.453 130.588 151.812 132.442ZM142.588 127.828L147.065 121.205C148.278 123.104 149.294 124.395 150.062 125.087L142.588 127.828ZM151.499 122.572C150.434 121.497 149.82 120.554 149.66 119.724C149.38 118.289 150.24 116.096 152.227 113.145C153.552 111.172 154.988 109.195 156.513 107.185C156.62 109.943 157.871 112.521 160.258 114.939C162.65 117.368 165.181 118.844 167.854 119.391L154.265 123.637C153.488 124.012 152.556 123.652 151.499 122.572ZM148.821 115.406L148.082 114.91C146.843 116.229 145.605 116.993 144.373 117.234C140.871 117.916 138.847 116.819 138.285 113.932L136.249 101.83C141.249 105.56 146.316 106.934 151.458 105.934C151.663 105.893 152.261 105.662 153.255 105.257C153.874 105.139 154.384 105.037 154.802 104.958H154.803L148.821 115.406ZM139.939 127.38C140.235 126.685 140.02 123.955 139.306 119.181C141.23 120.303 143.226 120.66 145.276 120.259L146.146 119.775C144.324 123.546 142.929 126.275 141.966 127.95L138.817 129.846L138.386 129.283L138.999 129.165L137.71 129.099C134.39 126.334 131.85 124.26 130.097 122.896C133.264 122.71 135.742 121.16 137.52 118.243C138.736 122.28 139.539 125.329 139.939 127.38ZM136.415 129.03L128.209 129.66C129.165 127.993 129.586 126.301 129.472 124.625L136.415 129.03ZM137.16 129.522L138.266 130.277L129.579 138.373C129.227 135.445 128.065 133.323 126.1 131.996L127.213 131.141C129.975 131.033 133.278 130.492 137.16 129.522ZM139 130.773L136.641 144.992C135.18 141.869 132.704 140.638 129.191 141.319L139 130.773ZM137.904 150.679C138.248 147.518 139.758 145.679 142.433 145.157C145.109 144.639 147.326 145.598 149.083 148.017L149.942 147.539L155.008 157.126C152.097 155.342 148.793 154.809 145.084 155.53C142.007 156.129 139.393 157.487 137.236 159.621C137.341 156.83 137.559 153.85 137.904 150.679ZM149.777 143.405C149.922 140.818 151.418 139.25 154.307 138.686C155.38 138.686 156.365 138.812 157.268 139.064L157.396 138.086L165.452 141.642C163.226 142.292 161.15 143.968 159.228 146.697C157.304 149.424 156.354 151.953 156.38 154.29L149.777 143.405ZM165.443 115.221C162.093 113.423 160.089 110.764 159.407 107.267C158.927 104.787 159.726 101.755 161.802 98.152C163.627 95.444 165.434 92.631 167.213 89.731C167.194 91.869 167.332 93.657 167.613 95.1C169.573 105.182 174.879 111.626 183.542 114.422L176.004 116.845L175.881 116.229C172.262 117.361 168.783 117.026 165.443 115.221ZM158.959 98.378L157.908 97.948C156.954 100.689 154.625 102.43 150.921 103.147C141.664 104.95 136.09 101.009 134.211 91.344L133.141 84.189C139.636 91.241 148.242 93.747 158.942 91.667C159.551 91.545 161.243 90.894 164.004 89.721L158.959 98.378ZM133.177 100.833L133.731 100.406L136.312 113.68L135.39 113.858C135.614 117.229 134.084 119.232 130.794 119.872C129.354 120.153 127.911 119.906 126.482 119.109L125.979 119.846L114.624 110.845C116.426 111.348 118.461 111.39 120.723 110.949C126.901 109.751 131.048 106.371 133.177 100.833ZM115.71 114.8C120.176 117.977 123.512 120.329 125.734 121.819L126.819 124.166C127.019 125.199 126.78 126.417 126.092 127.831C125.406 129.25 124.653 130.029 123.832 130.189L107.48 131.771C110.203 130.389 112.449 127.98 114.243 124.542C116.03 121.096 116.512 117.843 115.71 114.8ZM126.282 144.454L126.962 144.645C127.662 143.869 128.524 143.374 129.553 143.177C132.432 142.615 134.686 143.779 136.33 146.67L134.319 162.74C134.135 159.585 132.356 156.778 129.005 154.334C125.647 151.892 122.547 151.048 119.709 151.818L119.085 151.936L126.282 144.454ZM136.981 161.594C139.465 158.969 142.033 157.396 144.712 156.875C150.066 155.835 154.781 158.133 158.859 163.746C159.432 164.483 162.238 169.601 167.295 179.073C161.627 175.261 155.616 173.985 149.239 175.224C143.272 176.382 138.365 179.15 134.519 183.523C135.639 173.919 136.464 166.615 136.981 161.594ZM158.646 157.691C158.048 154.617 158.731 151.548 160.706 148.486C162.678 145.443 165.202 143.613 168.283 143.014C168.942 143.106 169.377 143.117 169.574 143.079C178.603 146.653 185.329 149.419 189.757 151.333C183.543 152.321 178.421 154.827 174.395 158.798C170.367 162.788 168.21 167.909 167.929 174.154C161.662 162.768 158.568 157.291 158.646 157.691ZM168.357 82.458C165.421 86.022 161.487 88.291 156.545 89.25C150.993 90.331 145.633 89.397 140.461 86.437C135.297 83.499 132.178 79.246 131.101 73.694L128.935 62.576C137.756 73.893 149.578 78.098 164.389 75.218C168.301 74.455 172.071 72.986 175.701 70.783C170.971 78.324 168.523 82.222 168.357 82.458ZM130.301 84.425L131.977 93.054L131.367 93.173C132.31 101.319 128.556 106.211 120.118 107.852C116.003 108.653 112.875 107.887 110.702 105.521L109.396 107.053L102.277 101.724C105.484 101.735 108.012 101.569 109.864 101.209C120.151 99.207 126.973 93.605 130.301 84.425ZM123.555 90.053C119.413 94.598 114.577 97.41 109.019 98.491C104.085 99.449 99.818 98.983 96.261 97.122C95.813 96.996 92.326 94.473 85.815 89.546C89.842 90.475 94.111 90.489 98.646 89.608C113.25 86.766 122.343 78.064 125.918 63.492L128.258 75.533C129.257 80.669 127.685 85.516 123.555 90.053ZM94.67 176.228C97.89 173.034 100.839 171.174 103.513 170.655C109.276 169.535 114.69 170.723 119.742 174.237C124.798 177.735 127.907 182.462 129.066 188.434C129.188 189.05 129.244 190.159 129.239 191.76C129.232 193.373 129.276 194.481 129.398 195.104L129.459 195.401L130.335 193.308L128.717 208.039C127.322 198.697 123.036 191.738 115.852 187.154C108.661 182.574 100.337 181.202 90.866 183.041C89.222 183.359 88.023 183.811 87.281 184.389C89.725 181.564 92.183 178.848 94.67 176.228ZM130.033 191.77C130.209 190.452 130.154 189.077 129.872 187.627C128.637 181.266 125.364 176.243 120.063 172.566C114.755 168.91 108.804 167.703 102.222 168.98C110.411 160.568 115.222 155.682 116.672 154.32L119.083 153.537C122.369 152.902 125.43 153.537 128.258 155.441C131.086 157.352 132.814 159.939 133.454 163.239C133.777 164.886 133.475 169.646 132.548 177.51C131.62 185.365 130.789 190.132 130.033 191.77ZM134.262 185.496C137.623 180.799 142.481 177.82 148.863 176.579C158.738 174.657 166.203 177.908 171.259 186.32L171.57 186.258L181.396 203.891C172.355 194.752 161.981 191.317 150.256 193.599C142.634 195.078 136.62 199.249 132.183 206.086C133.166 196.922 133.877 190.061 134.262 185.496ZM180.456 195.741L169.95 177.914C169.274 172.291 170.627 167.172 174.004 162.562C177.373 157.951 181.845 155.105 187.403 154.024C191.92 153.143 199.773 155.043 210.929 159.699C201.704 161.707 194.347 165.867 188.851 172.172C183.351 178.473 180.553 186.328 180.456 195.741ZM195.993 150.432C190.209 147.078 186.707 142.206 185.467 135.828C183.307 124.714 187.23 117.454 197.229 113.998L197.428 113.337L211.94 108.899C203.792 117.533 200.84 127.616 203.079 139.131C204.518 146.539 207.965 152.715 213.415 157.624C202.775 153.5 196.977 151.11 195.993 150.432ZM194.328 46.343C192.867 51.964 192.723 57.868 193.924 64.042C195.725 73.301 199.98 81.17 206.686 87.662C213.399 94.151 221.315 98.431 230.479 100.49L218.87 103.394C210.644 104.993 203.022 103.382 195.991 98.554C188.97 93.721 184.663 87.192 183.061 78.969C182.541 76.286 182.526 72.709 183.05 68.229C183.569 63.759 184.698 61.029 186.423 60.047L186.056 59.801L194.328 46.343ZM146.156 55.55C154.836 58.453 163.59 59.044 172.444 57.323C178.003 56.242 182.972 54.422 187.387 51.848L183.474 58.065L183.167 58.125C180.123 65.55 173.672 70.214 163.793 72.135C155.761 73.697 147.939 72.442 140.316 68.37C132.69 64.309 128.099 58.254 126.536 50.232L124.678 40.668C130.313 47.692 137.47 52.649 146.156 55.55ZM84.17 74.483C93.841 72.605 102.205 67.842 109.252 60.16C116.295 52.49 120.053 43.798 120.515 34.101L123.998 52.018C125.272 59.661 123.188 67.007 117.722 74.05C112.248 81.09 105.615 85.37 97.797 86.891C89.564 88.489 82.501 86.765 76.616 81.724L76.053 82.154L64.507 73.814C71.441 75.475 78.003 75.685 84.17 74.483ZM63.092 118.454C68.126 108.633 69.653 98.664 67.696 88.587C66.933 84.679 65.545 80.784 63.507 76.914C68.169 80.049 72.755 83.319 77.267 86.725C81.676 90.775 84.426 95.579 85.508 101.134C87.065 109.15 85.621 116.542 81.165 123.282C76.712 130.025 70.582 134.152 62.76 135.673C60.707 136.073 59.236 136.247 58.381 136.202L58.244 137.182L41.344 139.189C50.818 135.214 58.067 128.302 63.092 118.454ZM68.895 175.461C65.493 157.983 56.182 146.877 40.958 142.147C51.647 140.067 59.997 139.078 66.004 139.194C70.764 139.557 75.212 142.054 79.32 146.713C83.422 151.351 85.972 156.242 86.976 161.386C88.615 169.826 87.183 177.248 82.659 183.675C81.707 185.366 76.393 190.987 66.722 200.556C69.817 192.262 70.534 183.904 68.895 175.461ZM124.96 241.447C125.047 239.717 124.434 237.052 123.095 233.476C119.685 223.671 113.241 216.015 103.728 210.503C94.22 204.975 84.329 203.218 74.038 205.222C70.13 205.98 66.052 207.525 61.802 209.841C66.563 204.648 71.329 199.551 76.128 194.56C82.455 188.649 88.181 185.173 93.33 184.173C101.961 182.492 109.536 184.059 116.031 188.881C122.518 193.716 126.575 200.339 128.219 208.781C128.494 210.223 127.413 221.107 124.96 241.447ZM196.249 229.188C185.409 219.548 172.885 216.107 158.687 218.864C144.081 221.707 133.739 230.017 127.665 243.793C129.472 227.863 130.896 215.942 131.917 208.061C136.521 200.971 142.525 196.704 149.938 195.259C164.33 192.461 175.955 197.895 184.811 211.541L185.674 211.051L196.249 229.188ZM231.686 174.256C219.96 176.531 210.844 182.62 204.342 192.534C197.831 202.446 195.405 213.328 197.069 225.18L182.533 199.819C181.708 191.223 183.798 183.29 188.797 176.024C193.792 168.751 200.498 164.299 208.933 162.661C212.435 161.979 215.085 161.882 216.896 162.39C219.564 162.942 224.265 164.633 231.012 167.495C237.756 170.344 242.013 172.456 243.777 173.827C239.42 173.382 235.394 173.534 231.686 174.256Z" fill="#030104" fill-opacity="0.57"/>
</svg>
