<svg width="3364" height="4027" viewBox="0 0 3364 4027" fill="none" xmlns="http://www.w3.org/2000/svg">
<rect width="3364" height="4027" fill="white"/>
<path fill-rule="evenodd" clip-rule="evenodd" d="M503 156L609.219 241.698C754.326 361.364 1044.54 600.695 1189.65 840.026C1334.76 1079.36 1334.76 1318.69 1238.02 1558.02C1141.28 1797.35 947.803 2036.68 996.172 2276.01C1044.54 2515.34 1334.76 2754.68 1310.57 2994.01C1286.39 3233.34 947.803 3472.67 778.511 3592.33L609.219 3712H503L503 3548.61C503 3428.94 503 3206.4 503 2967.07C503 2727.74 503 2548.14 503 2308.81C503 2069.48 503 1759.28 503 1519.95C503 1280.62 503 1090.48 503 851.154C503 611.822 503 376.395 503 256.73L503 207.536L503 156Z" fill="#FFEEE8"/>
<path fill-rule="evenodd" clip-rule="evenodd" d="M492 3464L788.378 3579.99C758.425 3593.33 717.565 3620.63 706.401 3629.26C623.623 3693.18 614.159 3800.4 771.825 3851.99C928.396 3903.23 1057.96 3897.88 1345.41 3885.87C1566.98 3876.61 1793.58 3831.51 2015.14 3812.99C2236.7 3794.47 2473.63 3812.44 2684.87 3869.59C2813.29 3904.34 2878 3901.77 2878 3901.77V3963.87V4027C2878 4027 2844.96 4027 2623.4 4027C2401.84 4027 2632.14 4027 2410.57 4027C2183.98 4027 2355.77 4027 2129.17 4027C1907.61 4027 2015.73 4027 1794.17 4027C1572.61 4027 1566.98 4027 1345.41 4027C1118.82 4027 897.252 4027 670.653 4027C449.09 4027 602.782 4027 492 4027V4004.93V3869.59V3464Z" fill="#FFEEE8"/>
</svg>
