<svg width="42" height="42" viewBox="0 0 42 42" fill="none" xmlns="http://www.w3.org/2000/svg">
<g clip-path="url(#clip0_11_52)">
<path d="M8.22683 0.010498C3.70272 0.010498 0 3.71313 0 8.23733V33.7667C0 38.2908 3.70264 41.9921 8.22683 41.9921H33.7562C38.2803 41.9921 41.9816 38.2908 41.9816 33.7667V8.23733C41.9816 3.71322 38.2803 0.010498 33.7562 0.010498H8.22683ZM10.296 6.93831C12.4652 6.93831 13.8014 8.36237 13.8426 10.2343C13.8426 12.0648 12.4651 13.5289 10.254 13.5289H10.2134C8.08542 13.5289 6.71005 12.0649 6.71005 10.2343C6.71005 8.36241 8.12704 6.93831 10.296 6.93831H10.296ZM28.9894 15.6873C33.1612 15.6873 36.2885 18.4141 36.2885 24.2736V35.2125H29.9485V25.0071C29.9485 22.4425 29.0309 20.6929 26.7365 20.6929C24.985 20.6929 23.9409 21.8722 23.4825 23.0114C23.3151 23.4189 23.2739 23.9882 23.2739 24.5583V35.2125H16.9339C16.9339 35.2125 17.0171 17.9248 16.9339 16.1347H23.2752V18.8363C24.1177 17.5364 25.6248 15.6873 28.9894 15.6873V15.6873ZM7.08401 16.1361H13.424V35.2126H7.08401V16.1361V16.1361Z" fill="#444444"/>
</g>
<defs>
<clipPath id="clip0_11_52">
<rect width="42" height="42" fill="white"/>
</clipPath>
</defs>
</svg>
