<svg width="42" height="42" viewBox="0 0 42 42" fill="none" xmlns="http://www.w3.org/2000/svg">
<path d="M21 0C15.2912 0 14.5798 0.027566 12.3456 0.122078C10.1023 0.232342 8.58482 0.580198 7.24591 1.10001C5.84459 1.62904 4.57551 2.45733 3.52713 3.52713C2.45434 4.57306 1.6256 5.84284 1.10001 7.24591C0.580198 8.58482 0.232342 10.1023 0.122078 12.3456C0.0210026 14.5811 0 15.2912 0 21C0 26.7088 0.027566 27.4202 0.122078 29.6544C0.232342 31.8912 0.580198 33.4152 1.10001 34.7541C1.62904 36.1554 2.45733 37.4245 3.52713 38.4729C4.57306 39.5457 5.84284 40.3744 7.24591 40.9C8.58482 41.4132 10.1088 41.7677 12.3456 41.8779C14.5811 41.979 15.2912 42 21 42C26.7088 42 27.4202 41.9724 29.6544 41.8779C31.8912 41.7677 33.4152 41.4119 34.7541 40.9C36.1554 40.371 37.4245 39.5427 38.4729 38.4729C39.547 37.4281 40.376 36.158 40.9 34.7541C41.4132 33.4152 41.7677 31.8912 41.8779 29.6544C41.979 27.4189 42 26.7088 42 21C42 15.2912 41.9724 14.5798 41.8779 12.3456C41.7677 10.1088 41.4119 8.57695 40.9 7.24591C40.371 5.84459 39.5427 4.57551 38.4729 3.52713C37.4281 2.45296 36.158 1.624 34.7541 1.10001C33.4152 0.580198 31.8912 0.232342 29.6544 0.122078C27.4189 0.0210026 26.7088 0 21 0ZM21 3.78047C26.6064 3.78047 27.2758 3.80804 29.4916 3.90255C31.5354 3.99838 32.6486 4.33967 33.3876 4.62845C34.3013 4.96571 35.1282 5.50249 35.8082 6.19971C36.5042 6.87682 37.039 7.70186 37.3729 8.6137C37.6616 9.35273 38.0029 10.4659 38.0988 12.5097C38.1933 14.7255 38.2208 15.3962 38.2208 21.0013C38.2208 26.6064 38.1933 27.2772 38.0909 29.4929C37.9806 31.5368 37.6393 32.6499 37.3519 33.3889C36.9541 34.3747 36.5104 35.0639 35.778 35.8095C35.0957 36.5023 34.2693 37.0365 33.3574 37.3742C32.6276 37.663 31.4987 38.0042 29.447 38.1001C27.2194 38.1946 26.5631 38.2222 20.9422 38.2222C15.3214 38.2222 14.6664 38.1946 12.4362 38.0922C10.3924 37.9819 9.26478 37.6406 8.52575 37.3532C7.52813 36.9554 6.84423 36.5118 6.11176 35.7793C5.37273 35.0403 4.9028 34.3367 4.54051 33.3587C4.24647 32.6289 3.91043 31.5 3.80148 29.4483C3.72665 27.247 3.69121 26.5644 3.69121 20.9698C3.69121 15.3779 3.72665 14.694 3.80148 12.4651C3.91043 10.4134 4.24647 9.2871 4.54051 8.55463C4.9028 7.5557 5.37405 6.87311 6.11176 6.13408C6.84292 5.40293 7.52813 4.93037 8.52575 4.5602C9.26478 4.27272 10.3648 3.93143 12.4165 3.82904C14.6441 3.74897 15.3004 3.72009 20.9134 3.72009L21 3.78047ZM21 10.2217C19.5841 10.2212 18.1819 10.4997 16.8737 11.0413C15.5655 11.5829 14.3768 12.377 13.3756 13.3782C12.3744 14.3794 11.5803 15.5681 11.0387 16.8763C10.4971 18.1846 10.2186 19.5867 10.2191 21.0026C10.2186 22.4185 10.4971 23.8207 11.0387 25.1289C11.5803 26.4371 12.3744 27.6258 13.3756 28.627C14.3768 29.6282 15.5655 30.4223 16.8737 30.9639C18.1819 31.5055 19.5841 31.7841 21 31.7835C22.4159 31.7841 23.8181 31.5055 25.1263 30.9639C26.4345 30.4223 27.6232 29.6282 28.6244 28.627C29.6256 27.6258 30.4197 26.4371 30.9613 25.1289C31.5029 23.8207 31.7814 22.4185 31.7809 21.0026C31.7814 19.5867 31.5029 18.1846 30.9613 16.8763C30.4197 15.5681 29.6256 14.3794 28.6244 13.3782C27.6232 12.377 26.4345 11.5829 25.1263 11.0413C23.8181 10.4997 22.4159 10.2212 21 10.2217V10.2217ZM21 28.0031C17.1303 28.0031 13.9996 24.8724 13.9996 21.0026C13.9996 17.1329 17.1303 14.0022 21 14.0022C24.8697 14.0022 28.0004 17.1329 28.0004 21.0026C28.0004 24.8724 24.8697 28.0031 21 28.0031ZM34.7357 9.79116C34.735 10.4602 34.4688 11.1016 33.9955 11.5744C33.5221 12.0472 32.8805 12.3128 32.2115 12.3128C31.8807 12.3128 31.5531 12.2476 31.2475 12.121C30.9419 11.9944 30.6642 11.8089 30.4303 11.575C30.1964 11.3411 30.0108 11.0634 29.8842 10.7578C29.7576 10.4521 29.6925 10.1246 29.6925 9.79379C29.6925 9.46299 29.7576 9.13543 29.8842 8.82981C30.0108 8.52419 30.1964 8.24649 30.4303 8.01258C30.6642 7.77867 30.9419 7.59312 31.2475 7.46653C31.5531 7.33994 31.8807 7.27478 32.2115 7.27478C33.5989 7.27478 34.7357 8.40368 34.7357 9.79116V9.79116Z" fill="#444444"/>
</svg>
