<svg width="91" height="88" viewBox="0 0 91 88" fill="none" xmlns="http://www.w3.org/2000/svg">
<path d="M72.4496 15.7542C69.6347 17.6027 67.2218 18.2283 65.8038 17.1903C64.3857 16.1523 64.2235 13.6427 65.1053 10.3795C59.4402 9.58328 52.3781 13.1948 47.5172 19.9345C46.6706 21.1076 45.9439 22.3091 45.316 23.5319C44.6881 22.3091 43.9614 21.1076 43.1148 19.9345C38.2539 13.1948 31.1919 9.58328 25.5267 10.3795C26.4086 13.6427 26.2463 16.1523 24.8282 17.1903C23.4102 18.2283 20.9974 17.6098 18.1824 15.7542C15.6779 20.937 16.9054 28.8213 21.7664 35.5609C22.5889 36.7027 23.4969 37.7794 24.4825 38.7815C23.135 39.0019 21.7734 39.3289 20.4047 39.7768C12.5525 42.3504 6.96492 48.0023 5.9631 53.6756C9.31424 53.8463 11.6353 54.7705 12.1786 56.4483C12.7218 58.1261 11.3884 60.2518 8.771 62.3704C12.8911 66.373 20.7081 67.6313 28.5744 65.0577C29.9431 64.6098 31.2342 64.0695 32.4547 63.451C32.2501 64.8089 32.1372 66.2166 32.1372 67.6669C32.1372 75.9991 35.7423 83.1013 40.7937 85.8171C41.986 82.6534 43.5805 80.7197 45.3301 80.7197C47.0798 80.7197 48.6742 82.6534 49.8665 85.8171C54.9179 83.1084 58.523 76.0062 58.523 67.6669C58.523 66.2166 58.4031 64.8018 58.1985 63.4439C59.419 64.0624 60.7101 64.6098 62.0858 65.0577C69.9521 67.6313 77.7691 66.373 81.8892 62.3704C79.2718 60.2447 77.9384 58.1261 78.4817 56.4483C79.0249 54.7705 81.3389 53.8391 84.6971 53.6756C83.7024 47.9952 78.1077 42.3504 70.2414 39.7768C68.8727 39.3289 67.5111 39.0019 66.1707 38.7815C67.1562 37.7794 68.0643 36.7027 68.8868 35.5609C73.7336 28.8141 74.9541 20.937 72.4496 15.7542V15.7542Z" stroke="#BA6E53" stroke-width="3" stroke-miterlimit="10" stroke-linecap="round" stroke-linejoin="round"/>
<path d="M87.6603 37.5658C84.0551 37.388 81.5577 36.3856 80.9791 34.5798C80.4006 32.7741 81.8328 30.492 84.6407 28.2098C80.2101 23.9016 71.8006 22.5508 63.3416 25.3234C61.8741 25.8069 60.4773 26.3898 59.1721 27.051C59.3908 25.5936 59.5178 24.0793 59.5178 22.5223C59.5178 13.5574 55.6446 5.91484 50.2122 3C48.9282 6.40539 47.2138 8.48133 45.3301 8.48133C43.4464 8.48133 41.7321 6.40539 40.4481 3C35.0157 5.91484 31.1425 13.5574 31.1425 22.5223C31.1425 24.0793 31.2624 25.5936 31.4882 27.051C30.1759 26.3898 28.7861 25.8069 27.3187 25.3234C18.8597 22.5508 10.4501 23.9087 6.01955 28.2098C8.8345 30.492 10.2667 32.7812 9.6811 34.5798C9.10259 36.3856 6.60512 37.388 3 37.5658C4.07236 43.6727 10.0832 49.7512 18.5493 52.5168C20.0167 53.0002 21.4842 53.3486 22.9304 53.5903C21.9004 54.6425 20.9198 55.7942 20.0097 57.0526C14.7819 64.3041 13.4626 72.7856 16.1576 78.3594C19.1842 76.3687 21.7805 75.7005 23.3044 76.8166C24.8282 77.9328 25.0046 80.6273 24.0592 84.1464C30.1548 85.0066 37.746 81.1178 42.9737 73.8662C43.8838 72.6008 44.6669 71.2998 45.3372 69.9845C46.0074 71.2998 46.7905 72.6008 47.7006 73.8662C52.9284 81.1178 60.5196 85.0066 66.6151 84.1464C65.6697 80.6344 65.8461 77.9328 67.37 76.8166C68.8939 75.7005 71.4901 76.3687 74.5167 78.3594C77.2118 72.7856 75.8925 64.3041 70.6647 57.0526C69.7546 55.7942 68.774 54.6354 67.7439 53.5903C69.1902 53.3486 70.6576 53.0002 72.1251 52.5168C80.577 49.7441 86.5879 43.6727 87.6603 37.5658V37.5658Z" fill="white" stroke="#BA6E53" stroke-width="5" stroke-miterlimit="10" stroke-linecap="round" stroke-linejoin="round"/>
<path d="M34.9189 42.7051V44.085H27.9932V42.7051H34.9189ZM28.2568 37.2031V50H26.5605V37.2031H28.2568ZM36.3955 37.2031V50H34.708V37.2031H36.3955Z" fill="#35101F"/>
<path d="M52.6641 37.2031H54.3076L58.5 47.6357L62.6836 37.2031H64.3359L59.1328 50H57.8496L52.6641 37.2031ZM52.1279 37.2031H53.5781L53.8154 45.0078V50H52.1279V37.2031ZM63.4131 37.2031H64.8633V50H63.1758V45.0078L63.4131 37.2031Z" fill="#35101F"/>
<line x1="44.5" y1="28" x2="44.5" y2="64" stroke="#35101F"/>
</svg>
