<svg width="53" height="74" viewBox="0 0 53 74" fill="none" xmlns="http://www.w3.org/2000/svg">
<path d="M26.5 0C24.7429 0 23.0578 0.74129 21.8154 2.0608C20.573 3.3803 19.875 5.16993 19.875 7.036C19.875 10.941 22.8231 14.072 26.5 14.072C30.1769 14.072 33.125 10.941 33.125 7.036C33.125 5.16993 32.427 3.3803 31.1846 2.0608C29.9422 0.74129 28.2571 0 26.5 0ZM19.875 17.59C18.9806 17.59 18.2188 17.977 17.5894 18.575H17.5563L0 37.2556L4.70375 42.216L16.5625 29.5864V73.878H23.1875V49.252H29.8125V73.878H36.4375V29.5864L48.2962 42.216L53 37.2556L35.4437 18.575C34.7812 17.977 34.0194 17.59 33.125 17.59" fill="#444444"/>
</svg>
