<svg width="693" height="3036" viewBox="0 0 693 3036" fill="none" xmlns="http://www.w3.org/2000/svg">
<path fill-rule="evenodd" clip-rule="evenodd" d="M-3.96831e-06 0L90.9227 73.1665C215.134 175.333 463.556 379.666 587.768 584C711.979 788.333 711.979 992.666 629.172 1197C546.364 1401.33 380.749 1605.67 422.153 1810C463.556 2014.33 711.979 2218.67 691.277 2423C670.575 2627.33 380.749 2831.67 235.836 2933.83L90.9227 3036H4.98983e-05L4.98983e-05 2896.5C4.98983e-05 2794.33 4.98983e-05 2604.33 4.98983e-05 2400C4.98983e-05 2195.67 4.98983e-05 2042.33 4.98983e-05 1838C4.98983e-05 1633.67 4.98983e-05 1368.83 4.98983e-05 1164.5C4.98983e-05 960.167 4.98983e-05 797.833 4.98983e-05 593.5C4.98983e-05 389.167 4.98983e-05 188.167 4.98983e-05 86L1.17513e-05 44L-3.96831e-06 0Z" fill="#FFEEE8"/>
</svg>
