<svg width="44" height="34" viewBox="0 0 44 34" fill="none" xmlns="http://www.w3.org/2000/svg">
<path d="M28.25 16.9998C28.25 18.6574 27.5915 20.2471 26.4194 21.4192C25.2473 22.5913 23.6576 23.2498 22 23.2498C20.3424 23.2498 18.7527 22.5913 17.5806 21.4192C16.4085 20.2471 15.75 18.6574 15.75 16.9998C15.75 15.3422 16.4085 13.7524 17.5806 12.5803C18.7527 11.4082 20.3424 10.7498 22 10.7498C23.6576 10.7498 25.2473 11.4082 26.4194 12.5803C27.5915 13.7524 28.25 15.3422 28.25 16.9998V16.9998Z" stroke="#444444" stroke-width="4.16667" stroke-linecap="round" stroke-linejoin="round"/>
<path d="M2.12085 16.9998C4.77502 8.54775 12.6729 2.4165 22 2.4165C31.3292 2.4165 39.225 8.54775 41.8792 16.9998C39.225 25.4519 31.3292 31.5832 22 31.5832C12.6729 31.5832 4.77502 25.4519 2.12085 16.9998V16.9998Z" stroke="#444444" stroke-width="4.16667" stroke-linecap="round" stroke-linejoin="round"/>
</svg>
